# xmcd
# Copyright (C) 1995-1998 Ti Kan
#
# Track frame offsets:
#       150
#       14012
#       40897
#       102775
#       118835
#       183277
#
# Disc length: 2585 seconds
#
# Revision: 0
# Processed by: cddbd v1.5.2PL0 Copyright (c) Steve Scherf et al.
# Submitted via: CD-Import v1.0
#
DISCID=490a1706
DTITLE=Crosby, Stills, Nash and Young - 4 Way Street Cd 2
DYEAR=1992
DGENRE=
TTITLE0=Pre-Road Downs
TTITLE1=Long Time Gone
TTITLE2=Southern Man
TTITLE3=Ohio
TTITLE4=Carry On
TTITLE5=Find The Cost Of Freedom
EXTD=
EXTT0=
EXTT1=
EXTT2=
EXTT3=
EXTT4=
EXTT5=
PLAYORDER=
